<?xml version="1.0" encoding="UTF-8" standalone="no"?>
<!-- Created with Inkscape (http://www.inkscape.org/) -->

<svg
   version="1.1"
   id="svg2"
   width="2666.6667"
   height="2666.6667"
   viewBox="0 0 2666.6667 2666.6667"
   sodipodi:docname="logoImage.eps"
   xmlns:inkscape="http://www.inkscape.org/namespaces/inkscape"
   xmlns:sodipodi="http://sodipodi.sourceforge.net/DTD/sodipodi-0.dtd"
   xmlns="http://www.w3.org/2000/svg"
   xmlns:svg="http://www.w3.org/2000/svg">
  <defs
     id="defs6" />
  <sodipodi:namedview
     id="namedview4"
     pagecolor="#ffffff"
     bordercolor="#000000"
     borderopacity="0.25"
     inkscape:showpageshadow="2"
     inkscape:pageopacity="0.0"
     inkscape:pagecheckerboard="0"
     inkscape:deskcolor="#d1d1d1" />
  <g
     id="g8"
     inkscape:groupmode="layer"
     inkscape:label="ink_ext_XXXXXX"
     transform="matrix(1.3333333,0,0,-1.3333333,0,2666.6667)">
    <g
       id="g10"
       transform="scale(0.1)">
      <path
         d="m 12168.5,10166.4 v -13 h 154.8 l 49.7,-13.6 563.2,-10.1 63.8,-16.5 h 783.6 c -14.7,-31.9 -30.7,-63.3 -47.8,-93.4 -13.6,8.9 -26,17.1 -39,25.4 -47.9,30.7 -99.9,46.1 -153.7,46.1 -181.4,0 -328.6,-174.3 -471,-343.3 -83.9,-99.9 -211,-250 -274.8,-250 -65.6,0 -144.2,86.3 -226.9,177.8 -122.4,136 -275.4,304.4 -504.7,304.4 -29,0 -58,-2.4 -87.5,-8.3 -5.3,-0.6 -11.2,-1.1 -17.7,-1.1 -238.2,0 -710.4,540.1 -1014.7,903 l 372.3,7.1 57.3,23.6 290.2,5.3 v 13 h -154.9 l -50.2,13.6 -562.6,9.5 -16,4.1 c -8.2,9.5 -15.3,18.3 -23,27.2 -79.2,95.2 -147.8,177.3 -205.1,241.7 -23,26.6 -59.1,56.1 -111.1,73.3 194.4,742.8 870.5,1290.7 1674.8,1290.7 616.4,0 1157.8,-322.1 1464.5,-807.9 l -416.1,-8.2 -57.3,-23.1 -290.2,-5.3 v -13 h 154.9 l 50.2,-13.6 562.6,-9.5 46.7,-12.4 c 40.2,-72.7 75.7,-148.9 105.2,-228.1 h -11.8 l -57.3,-23.6 -289.6,-4.8 v -13 h 154.2 l 50.3,-13.6 174.9,-3.5 c 58.5,-173.2 89.8,-358.7 89.8,-551.4 0,-216.9 -39.6,-424.9 -112.9,-616.4 l -408.3,-6.5 v -16.5 l -911.3,-17.8 -57.3,-23.6 -290.2,-4.7"
         style="fill:#f36518;fill-opacity:1;fill-rule:nonzero;stroke:none"
         id="path12" />
      <path
         d="m 16051.2,7569.6 c -2.3,0 -4.7,0 -8.3,0.6 -199.1,44.9 -517.7,602.8 -936.1,612.8 -229.3,5.4 -365.8,55.6 -399.5,55.6 -27.7,0 13.6,-33.7 130.6,-155.4 177.3,-183.8 391.3,-414.3 356.4,-414.3 -16,0 -85.7,49.6 -237,175.5 -478.1,398.3 -537.8,298.4 -916,647.1 -378.2,348.7 -328.6,537.8 -757,597.5 -210.4,29.6 -354.6,65 -420.8,65 -68.6,0 -53.8,-37.8 57.3,-159.5 219.3,-238.8 358.7,-443.3 358.7,-443.3 0,0 106.4,-158.9 76.9,-158.9 -14.8,0 -63.9,39.5 -176.7,158.9 -338.7,358.7 -458.1,488.2 -592.2,537.8 -29,10.6 -56.1,30.8 -81,56.1 -90.4,92.8 -149.5,255.4 -153,282.6 -5.4,34.8 -34.9,318.5 -258.9,318.5 -224.5,0 -294.3,-4.8 -294.3,-89.3 0,-23.6 -16.5,-33.1 -43.1,-33.1 -68.6,0 -199.8,64.5 -250.6,107.6 -55,47.9 -669.6,874 -962.7,1134.7 -55,49 -98.7,78 -125.3,78 -10.1,0 -17.1,-4.1 -22.5,-12.4 -84.5,-154.8 -34.8,-159.6 -34.8,-289 0,-73.9 91,-157.2 189.7,-258.3 75,-75.6 154.8,-161.3 203.9,-259.4 114.6,-229.3 -14.8,-10.1 129.4,-293.7 47.9,-94 95.1,-169 124.1,-217.5 25.4,-41.4 37.2,-63.8 24.8,-63.8 -17.1,0 -79.2,42.5 -213.3,136.5 -322.7,225.7 -436.2,575 -573.9,575 -11.2,0 -22.4,-2.4 -33.6,-7.1 -154.3,-65 -24.9,-40.2 -104.6,-254.1 -79.8,-213.9 74.4,0 69.7,-308.5 -5.3,-309.1 452.7,-231.7 692,-605.1 238.8,-373.6 306.2,-403.7 507.7,-523.1 160.7,-94.5 354,-241.7 313.8,-241.7 -10.1,0 -36.1,10.1 -82.2,32.5 -224,112.3 -642.4,149.5 -851.6,321.5 -84.5,69.8 -148.3,99.9 -196.2,99.9 -69.7,0 -104,-65 -117,-167.3 -22.4,-171.9 320.9,-111.6 290.8,-276 -29.6,-164.8 127,-112.2 493.4,-545.4 203.3,-241.1 316.8,-332.2 316.8,-336.9 -4.7,0 -77.4,49.7 -227.5,120 -351.1,164.3 -410.7,410.7 -769.5,500.6 -358.1,89.8 -380.6,171.9 -768.84,276.5 -31.91,8.3 -59.69,12.4 -83.32,12.4 -206.84,0 -140.07,-287.8 -232.25,-287.8 -27.2,0 -67.38,24.9 -132.97,88.7 -313.22,306.1 -709.17,731.6 -926.07,851.6 -216.3,119.4 -209.21,29.5 -403.06,208.6 -122.91,113.5 -221.61,200.9 -257.06,200.9 -20.69,0 -20.1,-30.1 10.63,-102.2 82.16,-195.6 253.53,-367.6 351.04,-583.9 96.93,-216.9 -22.45,-153.1 48.46,-257.7 70.92,-104.6 104.61,-127 134.16,-220.4 15.36,-46.7 21.86,-72.1 10.63,-72.1 -10.63,0 -38.41,25.4 -92.77,79.8 -108.16,108.1 -153.07,111.7 -164.3,186.7 -11.24,74.5 -11.24,-15.3 -190.29,104.6 -179.07,119.4 -261.22,190.3 -455.64,238.8 -143.03,36 -154.25,106.4 -195.62,106.4 -14.18,0 -32.51,-8.9 -62.06,-32 -112.29,-85.6 -115.82,15.4 -153.06,-111.6 -37.23,-127.1 145.37,-78.6 242.89,-216.9 96.92,-137.7 -41.36,-66.8 253.54,-283.7 295.49,-216.3 142.42,-156.6 299.02,-294.9 156.62,-138.3 280.14,-138.3 373.5,-294.9 66.2,-111.7 148.34,-250.6 123.52,-250.6 -10.04,0 -37.24,23.1 -89.83,78.6 -183.21,194.5 -205.66,216.3 -392.41,231.7 -10.64,0.6 -21.27,1.2 -31.31,1.2 -96.93,0 -147.75,-37.8 -202.72,-37.8 -35.45,0 -72.1,15.3 -124.1,66.2 -142.43,138.2 -564.38,112.2 -743.45,310.2 -148.93,164.3 -274.82,380 -479.87,380 -41.97,0 -86.89,-8.9 -136.52,-28.9 -60.87,-25.5 -117.6,-34.3 -170.8,-34.3 -133.56,0 -242.29,56.7 -328.59,56.7 -43.14,0 -80.36,-14.2 -112.87,-56.1 -123.52,-160.8 -14.77,-14.8 153.07,-209.3 167.83,-194.4 228.11,-156.6 265.35,-235.1 11.81,-24.9 19.49,-36.1 19.49,-38.5 -4.13,0 -44.9,38.5 -161.33,79.2 -134.16,47.9 -119.96,72.1 -140.06,72.1 -7.1,0 -17.73,-2.3 -39.6,-8.3 -2.95,-0.5 -6.5,-1.1 -9.46,-1.1 -62.63,0 -168.42,133 -344.53,133 -73.87,0 -160.75,-23.7 -261.81,-91.1 -355.18,-235.2 -250.57,-40.8 -500.56,-208.6 -202.7,-136.5 -463.33,-343.9 -503.51,-343.9 -9.45,0 -6.49,11.2 11.81,37.2 0,0 1768.81,1405.9 2204.36,1405.9 17.14,0 31.91,-1.7 44.91,-6.5 14.19,-4.7 28.96,-7.1 44.92,-7.1 336.85,0 1063.17,1078 1385.25,1078 27.77,0 52.6,-7.7 73.87,-25.4 230.49,-189.1 311.45,-514.8 495.25,-514.8 39,0 82.14,14.2 131.79,46.7 262.39,172 1625.19,1641.8 2112.18,1641.8 26,0 49.6,-4.2 70.3,-13.6 18.3,-7.7 34.9,-18.9 48.5,-34.3 43.1,-49.1 94.5,-109.9 151.8,-178.5 24.3,-28.9 49.7,-59.7 76.9,-91.6 348.6,-418.4 856.3,-1018.2 1166,-1018.2 13.6,0 26.6,1.1 39.6,3.5 22.4,4.1 44.3,5.9 65.6,5.9 330.9,0 478.1,-481 731,-482.2 h 0.6 c 239.9,0 495.2,593.3 745.8,593.3 30.1,0 60.3,-8.3 89.8,-27.8 13.6,-8.8 27.8,-18.3 42,-27.7 273,-186.2 619.9,-523 904.2,-768.9 293.7,-254.7 1619.3,-1579.1 1472.1,-1579.1"
         style="fill:#100f0d;fill-opacity:1;fill-rule:nonzero;stroke:none"
         id="path14" />
    </g>
  </g>
</svg>
